<?xml version="1.0" standalone="no"?>
<!DOCTYPE svg PUBLIC "-//W3C//DTD SVG 20010904//EN"
 "http://www.w3.org/TR/2001/REC-SVG-20010904/DTD/svg10.dtd">
<svg version="1.0" xmlns="http://www.w3.org/2000/svg"
 width="1640.000000pt" height="1640.000000pt" viewBox="0 0 1640.000000 1640.000000"
 preserveAspectRatio="xMidYMid meet">
<metadata>
Created by potrace 1.11, written by Peter Selinger 2001-2013
</metadata>
<g transform="translate(0.000000,1640.000000) scale(0.100000,-0.100000)"
fill="#000000" stroke="none">
<path d="M510 14861 c0 -5 7 -14 15 -21 9 -7 13 -15 11 -18 -3 -3 3 -17 13
-31 10 -14 29 -44 41 -66 62 -109 75 -133 93 -167 11 -20 23 -35 27 -33 4 2 7
-1 7 -8 0 -7 20 -46 44 -87 24 -41 50 -86 56 -100 7 -14 21 -38 32 -55 10 -16
28 -47 40 -69 111 -196 227 -392 233 -394 5 -2 6 -8 2 -13 -3 -5 0 -9 5 -9 6
0 11 -5 11 -11 0 -7 22 -48 48 -93 27 -45 66 -111 86 -148 21 -38 43 -68 49
-68 5 0 8 -3 4 -6 -6 -6 16 -57 35 -78 8 -10 35 -57 128 -221 15 -27 49 -85
74 -128 25 -43 46 -82 46 -87 0 -6 3 -10 8 -10 4 0 12 -10 18 -23 25 -52 78
-143 92 -159 8 -10 12 -18 8 -18 -4 0 6 -19 22 -42 27 -41 69 -114 153 -265
20 -36 42 -69 50 -74 8 -5 11 -9 7 -9 -4 0 1 -15 11 -32 10 -18 38 -67 61
-108 24 -41 47 -78 52 -81 5 -3 10 -12 12 -20 1 -8 9 -25 18 -39 8 -14 55 -95
104 -180 48 -85 92 -156 96 -158 4 -2 8 -8 8 -13 0 -5 41 -80 91 -166 51 -87
99 -171 107 -188 9 -16 31 -53 49 -82 18 -29 33 -56 33 -62 0 -5 3 -11 8 -13
4 -2 20 -29 37 -60 16 -31 32 -55 36 -53 3 2 6 -1 6 -8 0 -7 18 -43 39 -80 21
-38 53 -92 69 -121 17 -30 35 -60 40 -67 6 -8 24 -39 40 -69 15 -30 31 -57 35
-60 3 -3 17 -25 30 -50 32 -62 47 -88 76 -135 13 -22 30 -51 36 -65 7 -14 20
-36 29 -50 9 -14 27 -44 40 -66 83 -145 242 -422 252 -439 7 -11 14 -22 17
-25 3 -3 14 -24 24 -47 11 -24 23 -43 28 -43 4 0 8 -4 8 -10 0 -13 101 -183
114 -192 6 -4 8 -8 3 -8 -12 0 21 -58 40 -69 10 -6 14 -11 10 -11 -10 0 62
-133 75 -138 4 -2 8 -8 8 -13 0 -5 41 -80 92 -166 50 -87 98 -170 105 -185 8
-16 19 -28 25 -28 6 0 9 -3 5 -6 -6 -6 14 -49 46 -99 37 -59 63 -103 74 -125
7 -14 17 -32 22 -40 26 -39 181 -312 181 -317 0 -4 6 -14 14 -22 7 -9 24 -36
37 -61 13 -25 26 -47 29 -50 3 -3 12 -18 20 -33 l14 -28 24 48 c14 26 29 50
33 51 5 2 9 12 9 22 0 10 4 20 8 22 9 3 59 87 62 103 1 6 7 17 14 25 7 8 26
40 42 70 16 30 32 57 37 58 4 2 7 9 7 15 0 6 6 18 14 26 7 9 28 45 47 81 19
36 37 67 40 70 3 3 12 17 20 32 8 15 34 62 59 105 24 43 43 81 42 86 -1 4 2 7
6 7 5 0 17 18 28 40 10 22 22 40 27 40 4 0 7 5 7 11 0 6 22 48 50 94 27 46 50
86 50 90 0 3 13 26 30 50 16 24 30 47 30 50 0 4 9 20 21 36 11 16 17 34 13 40
-4 7 -3 9 3 6 5 -3 23 20 39 51 16 31 32 59 35 62 3 3 23 37 44 75 21 39 45
78 53 88 8 9 11 17 6 17 -5 0 -4 4 1 8 9 6 23 29 59 97 6 11 14 22 17 25 5 5
11 19 20 45 1 6 11 19 21 29 17 18 19 25 17 42 0 4 4 10 10 13 6 4 21 25 33
48 23 41 93 163 113 195 5 9 18 30 27 48 9 17 26 46 38 65 12 19 18 35 14 35
-4 0 -1 6 8 13 9 6 31 39 48 72 49 94 64 120 73 123 4 2 7 8 7 14 0 5 9 23 21
39 11 16 18 29 14 29 -3 0 -1 6 5 13 6 6 47 75 91 152 45 77 95 163 112 192
16 28 29 54 28 58 -2 4 2 11 7 14 12 7 162 268 162 280 0 5 5 11 12 13 6 2 9
9 5 14 -4 7 -321 10 -936 10 l-930 -1 -30 53 c-17 30 -31 58 -31 63 0 5 -5 9
-12 9 -6 0 -8 3 -5 7 4 3 2 12 -4 20 -13 15 -36 55 -75 130 -15 29 -30 50 -34
48 -3 -2 -6 5 -7 15 -1 10 -17 43 -35 72 -18 29 -46 78 -62 108 -16 30 -34 62
-40 70 -7 8 -21 33 -31 55 -11 22 -23 42 -27 43 -5 2 -8 8 -8 14 0 6 -15 36
-34 67 -33 55 -59 102 -119 211 -17 30 -38 66 -47 80 -9 14 -24 42 -34 63 -9
20 -21 37 -27 37 -6 0 -8 4 -5 8 3 5 -8 28 -25 53 -16 24 -29 47 -29 51 0 4
-18 37 -40 73 -22 36 -40 67 -40 70 0 2 -17 32 -37 67 -21 35 -38 65 -38 68
-1 3 -11 21 -23 40 -12 19 -32 55 -44 80 -13 25 -26 47 -29 50 -3 3 -8 13 -12
22 -6 17 276 18 5794 20 l5801 3 79 135 c43 74 82 142 86 150 4 8 56 101 116
205 61 105 110 196 110 202 0 7 2 11 5 8 5 -5 102 160 102 174 0 5 3 11 8 13
11 5 52 84 47 92 -3 3 -2 4 2 1 7 -5 21 16 77 120 21 39 42 75 46 80 4 6 19
30 32 55 14 25 48 84 75 131 27 48 53 93 57 100 3 8 17 32 31 54 14 22 28 47
32 55 4 8 17 32 30 52 13 21 23 40 23 43 0 3 -3472 5 -7715 5 -4402 0 -7715
-4 -7715 -9z"/>
<path d="M8268 11422 c-9 -2 -43 -49 -75 -105 -32 -56 -62 -110 -68 -119 -5
-9 -40 -70 -78 -135 -37 -65 -78 -136 -91 -158 -157 -269 -276 -477 -276 -485
0 -6 -4 -10 -10 -10 -5 0 -10 -5 -10 -11 0 -6 -8 -23 -19 -37 -10 -15 -31 -51
-47 -80 -35 -63 -44 -79 -67 -114 -11 -15 -15 -33 -11 -39 4 -7 3 -9 -3 -6 -6
4 -18 -8 -28 -26 -26 -51 -40 -74 -54 -90 -7 -9 -10 -21 -6 -27 3 -5 2 -10 -3
-10 -5 0 -35 -46 -67 -102 -32 -57 -67 -115 -78 -130 -11 -15 -16 -31 -12 -39
5 -7 4 -10 -2 -6 -5 3 -18 -11 -28 -31 -11 -20 -30 -54 -43 -75 -13 -21 -31
-53 -42 -71 -10 -18 -24 -44 -32 -57 -7 -13 -18 -31 -24 -39 -7 -8 -24 -37
-39 -65 -14 -27 -40 -72 -56 -100 -16 -27 -41 -72 -55 -100 -15 -27 -30 -51
-35 -53 -5 -2 -9 -7 -9 -12 0 -5 -21 -44 -47 -87 -25 -43 -59 -103 -76 -133
-16 -30 -36 -62 -43 -71 -8 -8 -14 -18 -14 -21 0 -3 -48 -88 -107 -189 -58
-101 -111 -193 -117 -204 -6 -11 -18 -31 -27 -45 -31 -49 -67 -115 -67 -124 0
-5 -4 -12 -9 -15 -6 -3 -47 -71 -93 -151 -46 -80 -90 -155 -98 -167 -8 -13
-11 -23 -8 -23 4 0 -1 -9 -11 -19 -10 -11 -29 -41 -43 -68 -14 -26 -28 -50
-31 -53 -3 -3 -12 -20 -20 -37 -8 -18 -17 -33 -20 -33 -3 0 -16 -22 -29 -50
-13 -27 -27 -50 -32 -50 -4 0 -8 -5 -8 -11 0 -6 -20 -45 -45 -86 -25 -40 -45
-75 -45 -77 0 -2 -34 -61 -76 -132 -41 -70 -76 -132 -77 -137 -1 -6 -10 -19
-19 -29 -10 -10 -18 -25 -18 -33 0 -8 -4 -15 -9 -15 -5 0 -14 -15 -21 -32 -7
-18 -24 -47 -37 -65 -12 -17 -23 -35 -23 -38 0 -4 -9 -20 -21 -36 -11 -16 -17
-29 -12 -29 4 0 3 -4 -3 -8 -11 -7 -57 -85 -91 -152 -10 -19 -21 -37 -24 -40
-6 -5 -41 -65 -83 -141 l-25 -47 114 -198 c63 -110 119 -206 124 -214 6 -8 22
-37 37 -65 15 -27 29 -52 33 -55 4 -3 12 -16 19 -30 6 -14 16 -32 21 -40 20
-31 126 -216 140 -242 7 -16 18 -28 23 -28 5 0 7 -4 4 -8 -3 -5 6 -25 19 -45
14 -20 25 -41 25 -46 0 -6 3 -11 8 -11 4 0 13 -14 21 -32 8 -17 41 -76 73
-130 32 -54 58 -103 58 -108 0 -6 4 -10 9 -10 5 0 11 -8 14 -17 8 -24 40 -76
52 -85 6 -4 6 -8 2 -8 -5 0 0 -12 10 -27 10 -16 28 -45 38 -66 11 -21 28 -47
38 -58 10 -10 15 -19 12 -19 -3 0 6 -18 20 -40 14 -22 25 -42 25 -46 0 -3 16
-29 35 -58 19 -29 35 -56 35 -59 0 -4 25 -47 55 -97 30 -50 55 -95 55 -100 0
-6 5 -10 12 -10 6 0 9 -3 5 -6 -3 -3 14 -37 39 -75 24 -38 41 -69 37 -69 -3 0
1 -8 9 -17 9 -10 25 -36 37 -58 12 -22 26 -47 31 -55 5 -8 55 -94 110 -190 55
-96 105 -182 110 -190 5 -8 21 -37 36 -65 14 -27 31 -57 38 -65 7 -8 16 -22
19 -30 4 -8 18 -33 32 -55 14 -22 28 -47 32 -55 4 -8 26 -48 50 -88 24 -40 43
-74 43 -76 0 -2 18 -34 40 -70 22 -36 40 -70 40 -76 0 -5 5 -10 10 -10 6 0 10
-7 10 -15 0 -8 5 -15 10 -15 6 0 10 -5 10 -11 0 -7 19 -44 41 -83 23 -39 55
-96 72 -126 17 -30 34 -57 38 -60 4 -3 12 -17 18 -30 6 -14 24 -47 40 -75 16
-27 40 -69 52 -93 13 -23 31 -51 41 -62 10 -11 18 -21 18 -22 -3 -7 22 -63 29
-68 7 -5 169 -285 199 -343 7 -15 18 -27 23 -27 6 0 8 -4 5 -8 -3 -5 6 -25 19
-45 14 -20 25 -38 25 -41 0 -3 18 -35 40 -71 22 -36 40 -67 40 -69 0 -11 78
-135 82 -131 3 3 5 -1 5 -8 0 -15 84 -160 95 -165 5 -2 8 -12 8 -22 0 -9 7
-23 15 -30 8 -7 15 -17 15 -22 0 -5 13 -29 30 -52 16 -24 27 -46 24 -48 -2 -3
2 -10 10 -17 11 -10 19 -3 40 35 14 26 26 50 26 55 0 5 5 9 10 9 6 0 10 5 10
11 0 5 17 39 38 74 69 117 76 130 117 201 85 150 177 310 186 324 33 53 179
314 179 320 0 5 3 10 8 12 11 5 52 84 47 92 -3 3 -2 4 1 1 4 -2 26 30 50 73
24 42 48 84 53 92 6 8 21 35 33 60 13 25 25 47 29 50 4 4 44 72 116 200 11 19
43 74 70 122 28 48 48 89 45 92 -3 4 0 6 6 6 7 0 18 15 27 32 8 18 28 56 45
83 17 28 35 61 41 75 6 13 13 27 17 30 4 3 18 25 31 50 13 25 30 52 37 60 7 8
12 17 11 20 0 3 6 16 15 30 40 64 248 433 248 441 0 5 5 9 10 9 6 0 10 4 10 9
0 5 32 64 72 132 74 128 107 186 131 229 7 14 47 84 88 155 42 72 87 150 101
175 52 92 168 291 183 314 8 12 12 26 8 29 -3 4 -2 7 3 7 6 0 20 18 33 40 12
22 20 40 16 40 -3 0 3 9 14 21 10 11 30 43 42 70 13 27 26 49 29 49 4 0 12 16
20 35 8 19 17 35 22 35 4 0 8 5 8 11 0 6 20 44 45 84 25 41 46 80 47 87 2 7 6
15 9 18 4 3 57 93 118 200 61 107 116 202 121 210 5 8 19 32 30 52 11 20 44
78 75 129 30 51 51 97 48 102 -3 6 -2 7 4 4 8 -5 33 31 33 46 0 1 -422 2 -937
1 l-936 0 -22 -35 c-12 -18 -37 -61 -55 -94 -18 -33 -41 -72 -51 -87 -11 -14
-19 -29 -19 -32 0 -3 -22 -43 -49 -88 -26 -46 -59 -103 -73 -128 -53 -95 -159
-280 -212 -370 -15 -25 -29 -53 -33 -62 -3 -10 -9 -18 -14 -18 -5 0 -9 -9 -9
-20 0 -11 -4 -20 -8 -20 -4 0 -20 -24 -35 -52 -16 -29 -41 -75 -56 -103 -16
-27 -26 -54 -23 -60 3 -5 2 -7 -3 -3 -7 7 -65 -88 -115 -187 -8 -17 -17 -32
-20 -35 -7 -6 -93 -155 -133 -230 -48 -90 -47 -90 -100 8 -89 163 -109 197
-119 203 -5 3 -9 9 -8 13 3 16 -44 95 -54 89 -6 -3 -8 -2 -4 2 5 5 -3 27 -16
49 -13 23 -37 66 -54 96 -16 30 -56 100 -87 155 -32 55 -74 130 -94 167 -19
36 -40 64 -46 61 -5 -4 -7 -3 -3 2 8 8 -59 137 -74 143 -4 2 -8 12 -8 22 0 9
-7 23 -15 30 -8 7 -15 18 -15 24 0 7 -8 21 -17 32 -10 11 -19 25 -20 31 -4 18
-64 117 -77 125 -6 4 -8 8 -3 8 8 0 -18 51 -53 105 -11 17 -26 44 -34 60 -8
17 -29 53 -45 80 -17 28 -35 60 -40 72 -6 12 -21 39 -34 60 l-25 39 23 39 c12
22 41 70 64 108 22 37 41 69 41 71 0 1 22 40 50 86 27 45 47 88 43 94 -3 6 -3
8 2 4 7 -7 75 95 75 113 0 5 4 9 9 9 5 0 11 8 15 18 3 9 17 35 31 57 14 22 30
52 36 68 6 15 14 27 19 27 4 0 13 15 21 33 7 17 16 34 19 37 7 5 113 186 138
235 9 17 18 32 22 35 4 3 22 32 40 64 18 33 57 99 86 148 30 49 54 90 54 92 0
2 36 62 80 135 44 72 80 134 80 137 0 3 8 18 19 32 10 15 29 47 43 72 14 25
46 79 72 121 25 42 46 82 46 88 0 6 4 11 10 11 5 0 12 11 16 25 3 14 9 25 13
25 3 0 17 21 31 48 14 26 28 52 33 57 9 12 140 234 150 255 4 8 16 29 27 45
11 17 23 38 26 48 4 9 10 17 15 17 5 0 8 3 7 8 -1 4 5 18 13 32 49 76 109 182
109 190 0 6 3 10 8 10 4 0 18 23 31 50 14 28 29 50 33 50 4 0 8 5 8 10 0 6 11
27 23 48 13 20 35 57 49 82 14 25 66 114 117 198 50 84 91 157 91 162 0 6 5
10 10 10 6 0 10 6 10 14 0 8 6 21 13 28 8 7 19 22 25 33 10 20 21 20 954 19
518 -1 953 -2 966 -3 l23 -1 -26 -42 c-14 -24 -32 -54 -38 -68 -6 -14 -17 -31
-24 -38 -7 -8 -11 -18 -8 -23 4 -5 1 -9 -5 -9 -6 0 -14 -8 -17 -17 -6 -16
-155 -281 -235 -418 -16 -27 -34 -62 -41 -77 -6 -16 -15 -28 -19 -28 -4 0 -8
-5 -8 -11 0 -6 -9 -24 -21 -40 -11 -16 -17 -34 -13 -41 4 -7 4 -10 -1 -6 -11
10 -337 -561 -329 -574 4 -6 3 -8 -2 -5 -6 3 -36 -40 -67 -96 -31 -56 -73
-130 -93 -164 l-36 -63 945 0 944 0 19 38 c10 20 26 48 35 62 9 14 27 45 41
70 14 25 60 104 102 177 42 73 76 137 76 143 0 5 3 10 8 10 7 0 13 9 42 66 8
16 41 73 72 127 32 54 58 103 58 108 0 5 5 9 10 9 6 0 10 5 10 10 0 9 49 97
173 310 44 75 83 144 112 195 33 58 103 178 122 210 7 11 15 27 20 35 4 8 37
68 75 132 37 65 68 122 68 128 0 5 4 10 9 10 10 0 27 39 23 53 -1 4 2 7 8 7 5
0 24 26 40 58 17 31 42 75 55 97 100 172 115 202 107 210 -4 5 -2 5 4 2 6 -3
26 23 47 61 41 74 60 108 166 291 39 69 71 126 71 129 0 2 8 16 19 30 17 25
29 47 97 170 15 26 33 55 42 65 8 9 11 17 7 17 -4 0 -1 8 7 18 8 9 28 42 44
72 16 30 32 57 35 60 4 3 16 24 28 47 l21 42 -368 1 c-880 3 -5309 5 -5324 2z"/>
</g>
</svg>
